<svg xmlns="http://www.w3.org/2000/svg" xmlns:xlink="http://www.w3.org/1999/xlink" width="600" zoomAndPan="magnify" viewBox="0 0 450 104.999996" height="140" preserveAspectRatio="xMidYMid meet" version="1.0"><defs><g/><clipPath id="72337fa074"><path d="M 20.445312 64 L 122.445312 64 L 122.445312 99.738281 L 20.445312 99.738281 Z M 20.445312 64 " clip-rule="nonzero"/></clipPath><clipPath id="b927b85baa"><path d="M 20.445312 67 L 122.445312 67 L 122.445312 99.738281 L 20.445312 99.738281 Z M 20.445312 67 " clip-rule="nonzero"/></clipPath><clipPath id="f285096636"><path d="M 20.445312 5.25 L 122.445312 5.25 L 122.445312 99.738281 L 20.445312 99.738281 Z M 20.445312 5.25 " clip-rule="nonzero"/></clipPath></defs><g clip-path="url(#72337fa074)"><path fill="#3b3b3b" d="M 122.378906 99.730469 L 107.824219 99.730469 C 107.824219 94.050781 104.296875 88.601562 97.890625 84.386719 C 90.90625 79.792969 81.511719 77.261719 71.441406 77.261719 C 61.371094 77.261719 51.980469 79.789062 44.996094 84.386719 C 38.589844 88.601562 35.058594 94.050781 35.058594 99.730469 L 20.507812 99.730469 C 20.507812 94.785156 21.96875 90.007812 24.847656 85.527344 C 27.535156 81.347656 31.335938 77.621094 36.148438 74.457031 C 45.65625 68.199219 58.191406 64.757812 71.441406 64.757812 C 84.691406 64.757812 97.226562 68.203125 106.738281 74.457031 C 111.546875 77.621094 115.351562 81.347656 118.039062 85.527344 C 120.917969 90.007812 122.378906 94.785156 122.378906 99.730469 Z M 122.378906 99.730469 " fill-opacity="1" fill-rule="nonzero"/></g><g clip-path="url(#b927b85baa)"><path fill="#000000" d="M 38.335938 83.742188 C 36.164062 88.796875 35.0625 94.175781 35.0625 99.730469 L 20.507812 99.730469 C 20.507812 99.542969 20.515625 99.355469 20.515625 99.167969 C 20.621094 94.421875 22.078125 89.835938 24.847656 85.527344 C 27.535156 81.347656 31.335938 77.621094 36.148438 74.457031 C 40.46875 71.613281 45.421875 69.351562 50.777344 67.730469 C 49.484375 68.722656 48.242188 69.792969 47.082031 70.941406 C 43.347656 74.613281 40.40625 78.921875 38.335938 83.742188 Z M 122.371094 99.167969 C 122.265625 94.421875 120.808594 89.835938 118.039062 85.527344 C 115.351562 81.347656 111.550781 77.621094 106.738281 74.457031 C 102.417969 71.613281 97.464844 69.351562 92.109375 67.730469 C 93.402344 68.722656 94.644531 69.792969 95.804688 70.941406 C 99.539062 74.613281 102.480469 78.921875 104.550781 83.742188 C 106.722656 88.796875 107.824219 94.175781 107.824219 99.730469 L 122.378906 99.730469 C 122.378906 99.542969 122.371094 99.355469 122.371094 99.167969 Z M 122.371094 99.167969 " fill-opacity="1" fill-rule="nonzero"/></g><g clip-path="url(#f285096636)"><path fill="#3b3b3b" d="M 122.378906 99.730469 L 107.824219 99.730469 C 107.824219 88.460938 106.722656 77.542969 104.550781 67.285156 C 102.480469 57.503906 99.539062 48.761719 95.804688 41.308594 C 92.289062 34.28125 88.117188 28.613281 83.738281 24.914062 C 79.707031 21.503906 75.570312 19.777344 71.445312 19.777344 C 67.320312 19.777344 63.183594 21.503906 59.148438 24.914062 C 54.769531 28.613281 50.597656 34.28125 47.082031 41.308594 C 43.351562 48.765625 40.40625 57.503906 38.335938 67.285156 C 36.164062 77.546875 35.0625 88.460938 35.0625 99.730469 L 20.507812 99.730469 C 20.507812 75.328125 25.324219 52.269531 34.066406 34.804688 C 38.519531 25.910156 43.792969 18.847656 49.75 13.8125 C 52.96875 11.09375 56.378906 8.988281 59.886719 7.550781 C 63.644531 6.015625 67.53125 5.238281 71.445312 5.238281 C 75.355469 5.238281 79.246094 6.015625 83 7.550781 C 86.507812 8.988281 89.917969 11.09375 93.136719 13.8125 C 99.09375 18.847656 104.367188 25.910156 108.820312 34.804688 C 117.5625 52.269531 122.378906 75.328125 122.378906 99.730469 Z M 122.378906 99.730469 " fill-opacity="1" fill-rule="nonzero"/></g><g fill="#000000" fill-opacity="1"><g transform="translate(151.097428, 69.903087)"><g><path d="M 21.453125 -40.578125 C 26.316406 -40.578125 29.914062 -39.507812 32.25 -37.375 C 34.582031 -35.25 35.75 -31.851562 35.75 -27.1875 L 35.75 0 L 30.984375 0 L 29.71875 -5.65625 L 29.421875 -5.65625 C 27.679688 -3.476562 25.84375 -1.863281 23.90625 -0.8125 C 21.96875 0.226562 19.335938 0.75 16.015625 0.75 C 12.390625 0.75 9.382812 -0.203125 7 -2.109375 C 4.613281 -4.023438 3.421875 -7.019531 3.421875 -11.09375 C 3.421875 -15.0625 4.984375 -18.125 8.109375 -20.28125 C 11.242188 -22.445312 16.0625 -23.628906 22.5625 -23.828125 L 29.34375 -24.046875 L 29.34375 -26.4375 C 29.34375 -29.757812 28.617188 -32.066406 27.171875 -33.359375 C 25.734375 -34.648438 23.703125 -35.296875 21.078125 -35.296875 C 18.992188 -35.296875 17.003906 -34.984375 15.109375 -34.359375 C 13.222656 -33.742188 11.460938 -33.039062 9.828125 -32.25 L 7.8125 -37.15625 C 9.550781 -38.101562 11.613281 -38.910156 14 -39.578125 C 16.382812 -40.242188 18.867188 -40.578125 21.453125 -40.578125 Z M 29.265625 -19.515625 L 23.390625 -19.28125 C 18.421875 -19.082031 14.976562 -18.285156 13.0625 -16.890625 C 11.15625 -15.503906 10.203125 -13.546875 10.203125 -11.015625 C 10.203125 -8.785156 10.882812 -7.148438 12.25 -6.109375 C 13.613281 -5.066406 15.363281 -4.546875 17.5 -4.546875 C 20.820312 -4.546875 23.613281 -5.472656 25.875 -7.328125 C 28.132812 -9.191406 29.265625 -12.0625 29.265625 -15.9375 Z M 29.265625 -19.515625 "/></g></g></g><g fill="#000000" fill-opacity="1"><g transform="translate(192.866344, 69.903087)"><g><path d="M 24.953125 -40.65625 C 25.691406 -40.65625 26.484375 -40.617188 27.328125 -40.546875 C 28.171875 -40.472656 28.941406 -40.363281 29.640625 -40.21875 L 28.8125 -34.1875 C 28.164062 -34.332031 27.445312 -34.453125 26.65625 -34.546875 C 25.863281 -34.648438 25.144531 -34.703125 24.5 -34.703125 C 22.46875 -34.703125 20.554688 -34.140625 18.765625 -33.015625 C 16.972656 -31.898438 15.546875 -30.335938 14.484375 -28.328125 C 13.421875 -26.316406 12.890625 -23.972656 12.890625 -21.296875 L 12.890625 0 L 6.328125 0 L 6.328125 -39.921875 L 11.6875 -39.921875 L 12.4375 -32.625 L 12.734375 -32.625 C 13.972656 -34.800781 15.625 -36.679688 17.6875 -38.265625 C 19.75 -39.859375 22.171875 -40.65625 24.953125 -40.65625 Z M 24.953125 -40.65625 "/></g></g></g><g fill="#000000" fill-opacity="1"><g transform="translate(223.616018, 69.903087)"><g><path d="M 22.34375 0.75 C 18.769531 0.75 15.613281 0.03125 12.875 -1.40625 C 10.144531 -2.851562 8 -5.085938 6.4375 -8.109375 C 4.875 -11.140625 4.09375 -15.015625 4.09375 -19.734375 C 4.09375 -24.648438 4.898438 -28.644531 6.515625 -31.71875 C 8.128906 -34.800781 10.347656 -37.0625 13.171875 -38.5 C 16.003906 -39.9375 19.207031 -40.65625 22.78125 -40.65625 C 24.769531 -40.65625 26.71875 -40.441406 28.625 -40.015625 C 30.539062 -39.597656 32.09375 -39.09375 33.28125 -38.5 L 31.28125 -33.0625 C 30.082031 -33.507812 28.6875 -33.929688 27.09375 -34.328125 C 25.507812 -34.722656 24.023438 -34.921875 22.640625 -34.921875 C 14.796875 -34.921875 10.875 -29.882812 10.875 -19.8125 C 10.875 -14.988281 11.828125 -11.300781 13.734375 -8.75 C 15.648438 -6.195312 18.492188 -4.921875 22.265625 -4.921875 C 24.398438 -4.921875 26.3125 -5.140625 28 -5.578125 C 29.6875 -6.023438 31.226562 -6.570312 32.625 -7.21875 L 32.625 -1.421875 C 31.28125 -0.722656 29.800781 -0.1875 28.1875 0.1875 C 26.570312 0.5625 24.625 0.75 22.34375 0.75 Z M 22.34375 0.75 "/></g></g></g><g fill="#000000" fill-opacity="1"><g transform="translate(259.354137, 69.903087)"><g><path d="M 12.890625 -56.59375 L 12.890625 -42.8125 C 12.890625 -41.125 12.847656 -39.546875 12.765625 -38.078125 C 12.691406 -36.617188 12.609375 -35.46875 12.515625 -34.625 L 12.890625 -34.625 C 14.023438 -36.3125 15.582031 -37.722656 17.5625 -38.859375 C 19.550781 -40.003906 22.113281 -40.578125 25.25 -40.578125 C 30.207031 -40.578125 34.1875 -38.851562 37.1875 -35.40625 C 40.195312 -31.957031 41.703125 -26.804688 41.703125 -19.953125 C 41.703125 -13.109375 40.1875 -7.945312 37.15625 -4.46875 C 34.132812 -0.988281 30.164062 0.75 25.25 0.75 C 22.113281 0.75 19.550781 0.175781 17.5625 -0.96875 C 15.582031 -2.113281 14.023438 -3.476562 12.890625 -5.0625 L 12.359375 -5.0625 L 11.015625 0 L 6.328125 0 L 6.328125 -56.59375 Z M 24.125 -35.15625 C 19.851562 -35.15625 16.910156 -33.9375 15.296875 -31.5 C 13.691406 -29.0625 12.890625 -25.289062 12.890625 -20.1875 L 12.890625 -19.890625 C 12.890625 -14.972656 13.691406 -11.207031 15.296875 -8.59375 C 16.910156 -5.988281 19.90625 -4.6875 24.28125 -4.6875 C 27.851562 -4.6875 30.519531 -6 32.28125 -8.625 C 34.039062 -11.257812 34.921875 -15.0625 34.921875 -20.03125 C 34.921875 -30.113281 31.320312 -35.15625 24.125 -35.15625 Z M 24.125 -35.15625 "/></g></g></g><g fill="#000000" fill-opacity="1"><g transform="translate(305.14361, 69.903087)"><g><path d="M 25.546875 -40.65625 C 30.304688 -40.65625 33.898438 -39.488281 36.328125 -37.15625 C 38.765625 -34.820312 39.984375 -31.097656 39.984375 -25.984375 L 39.984375 0 L 33.515625 0 L 33.515625 -25.546875 C 33.515625 -31.953125 30.535156 -35.15625 24.578125 -35.15625 C 20.160156 -35.15625 17.109375 -33.910156 15.421875 -31.421875 C 13.734375 -28.941406 12.890625 -25.367188 12.890625 -20.703125 L 12.890625 0 L 6.328125 0 L 6.328125 -39.921875 L 11.609375 -39.921875 L 12.578125 -34.484375 L 12.953125 -34.484375 C 14.242188 -36.566406 16.03125 -38.113281 18.3125 -39.125 C 20.601562 -40.144531 23.015625 -40.65625 25.546875 -40.65625 Z M 25.546875 -40.65625 "/></g></g></g><g fill="#000000" fill-opacity="1"><g transform="translate(351.156443, 69.903087)"><g><path d="M 12.890625 -56.59375 L 12.890625 -42.8125 C 12.890625 -41.125 12.847656 -39.546875 12.765625 -38.078125 C 12.691406 -36.617188 12.609375 -35.46875 12.515625 -34.625 L 12.890625 -34.625 C 14.023438 -36.3125 15.582031 -37.722656 17.5625 -38.859375 C 19.550781 -40.003906 22.113281 -40.578125 25.25 -40.578125 C 30.207031 -40.578125 34.1875 -38.851562 37.1875 -35.40625 C 40.195312 -31.957031 41.703125 -26.804688 41.703125 -19.953125 C 41.703125 -13.109375 40.1875 -7.945312 37.15625 -4.46875 C 34.132812 -0.988281 30.164062 0.75 25.25 0.75 C 22.113281 0.75 19.550781 0.175781 17.5625 -0.96875 C 15.582031 -2.113281 14.023438 -3.476562 12.890625 -5.0625 L 12.359375 -5.0625 L 11.015625 0 L 6.328125 0 L 6.328125 -56.59375 Z M 24.125 -35.15625 C 19.851562 -35.15625 16.910156 -33.9375 15.296875 -31.5 C 13.691406 -29.0625 12.890625 -25.289062 12.890625 -20.1875 L 12.890625 -19.890625 C 12.890625 -14.972656 13.691406 -11.207031 15.296875 -8.59375 C 16.910156 -5.988281 19.90625 -4.6875 24.28125 -4.6875 C 27.851562 -4.6875 30.519531 -6 32.28125 -8.625 C 34.039062 -11.257812 34.921875 -15.0625 34.921875 -20.03125 C 34.921875 -30.113281 31.320312 -35.15625 24.125 -35.15625 Z M 24.125 -35.15625 "/></g></g></g></svg>